<svg width="165" height="32" viewBox="0 0 165 32" fill="none"
  xmlns="http://www.w3.org/2000/svg">
  <path d="M15.3459 29.9293C7.57625 29.9293 1.71875 23.9501 1.71875 16.0209C1.71875 8.06775 7.57797 2.07425 15.3476 2.07425C18.6364 2.07425 21.621 3.16155 23.9697 5.21802C26.3184 7.27448 27.8283 10.1038 28.3413 13.411L28.496 14.4104H20.1953L20.0045 13.8214C19.2818 11.5891 17.502 10.2033 15.3588 10.2033C12.4197 10.2033 10.2884 12.6506 10.2884 16.0236C10.2884 19.3645 12.4214 21.7888 15.3588 21.7888C17.6284 21.7888 19.4047 20.2902 19.9925 17.8802L20.1515 17.2281H28.5484L28.4109 18.2106C27.9323 21.6315 26.4344 24.5612 24.0737 26.6816C21.908 28.6288 19.1933 29.7348 16.1812 29.9071V29.9311L15.3459 29.9293ZM15.2599 28.2033H15.3459C20.9885 28.2033 25.3954 24.5257 26.5848 18.9488H21.4285C20.4952 21.7426 18.1758 23.5112 15.363 23.5112C13.4776 23.5112 11.7537 22.7464 10.5179 21.3579C9.295 19.9872 8.62125 18.0916 8.62125 16.02C8.62125 13.9484 9.29414 12.035 10.5119 10.6519C11.7528 9.24745 13.4741 8.47372 15.3596 8.47372C18.0039 8.47372 20.3053 10.1047 21.3752 12.6808H26.4988C25.2476 7.32512 20.8794 3.79759 15.3476 3.79759C8.52758 3.7967 3.38594 9.05201 3.38594 16.0209C3.38594 22.9356 8.48289 28.1598 15.2573 28.2033H15.2599Z" fill="#30005F"/>
  <path d="M42.331 9.1568V15.2054H39.8483C37.5847 15.2054 36.6368 16.2314 36.6368 18.6787V28.4369H30.2422V9.24918H34.5262L35.5239 11.3812C36.8327 9.81593 38.4277 9.16035 40.6372 9.16035L42.331 9.1568Z" fill="#30005F"/>
  <path d="M63.5292 18.661C63.526 19.2468 63.4818 19.8317 63.3969 20.411H49.6134C50.0311 22.6122 51.3837 23.7502 53.4024 23.7502C54.8968 23.7502 56.1446 23.0742 56.7591 21.9504H63.1185C61.8122 26.3299 58.0567 29.0659 53.3989 29.0659C47.6093 29.0659 43.3193 24.69 43.3193 18.8324C43.3193 12.9446 47.5758 8.61673 53.4024 8.61673C59.3862 8.61673 63.5301 13.029 63.5301 18.6548L63.5292 18.661ZM49.726 16.7511H57.2343C56.674 14.8332 55.336 13.7983 53.4067 13.7983C51.5384 13.7983 50.2433 14.8448 49.726 16.7511Z" fill="#30005F"/>
  <path d="M86.0319 9.22789V28.4156H81.0888L80.5414 27.0592C79.0211 28.3321 77.0961 29.0659 74.9374 29.0659C69.2655 29.0659 65.2041 24.7851 65.2041 18.8218C65.2058 12.8807 69.2655 8.6496 74.9374 8.6496C77.1245 8.6496 79.077 9.40378 80.6093 10.7114L81.2632 9.22701L86.0319 9.22789ZM79.9501 18.8369C79.9501 16.3496 78.1893 14.4761 75.7942 14.4761C73.3879 14.4761 71.6391 16.3469 71.6391 18.8369C71.6391 21.3428 73.3991 23.2136 75.7942 23.2136C78.1893 23.2136 79.9501 21.3428 79.9501 18.8369Z" fill="#30005F"/>
  <path d="M102.106 22.6522V28.4414H97.7058C93.6005 28.4414 91.1057 25.8475 91.1057 21.5827V14.3428H87.7078V12.7918L96.0248 3.64212H97.3388V9.25276H102.003V14.3428H97.4995V20.4492C97.4995 21.8234 98.3022 22.6522 99.648 22.6522H102.106Z" fill="#30005F"/>
  <path d="M103.781 18.8422C103.781 12.8904 108.137 8.61938 114.189 8.61938C120.222 8.61938 124.598 12.894 124.598 18.8422C124.598 24.7708 120.222 29.0659 114.189 29.0659C108.137 29.0659 103.781 24.7708 103.781 18.8422ZM114.189 23.1283C116.521 23.1283 118.193 21.3801 118.193 18.8431C118.193 16.3211 116.521 14.5569 114.189 14.5569C111.858 14.5569 110.186 16.306 110.186 18.8431C110.186 21.3801 111.858 23.1283 114.189 23.1283Z" fill="#30005F"/>
  <path d="M138.359 9.1568V15.2054H135.878C133.614 15.2054 132.665 16.2314 132.665 18.6787V28.4369H126.271V9.24918H130.555L131.552 11.3812C132.862 9.81593 134.457 9.16035 136.666 9.16035L138.359 9.1568Z" fill="#30005F"/>
  <path d="M147.838 29.0659C142.779 29.0659 139.703 26.3032 139.645 22.1459H145.8C145.8 23.5494 146.745 24.1952 147.958 24.1952C148.893 24.1952 149.78 23.7022 149.78 22.7099C149.78 21.6031 148.375 21.2886 146.59 20.983C143.712 20.5007 139.896 19.6026 139.896 14.9487C139.896 11.1022 143.067 8.61938 147.824 8.61938C152.55 8.61938 155.615 11.2186 155.688 15.1041H149.703C149.703 13.8791 148.907 13.3088 147.748 13.3088C146.723 13.3088 146.034 13.8338 146.034 14.723C146.034 15.8148 147.454 16.0688 149.214 16.394C152.146 16.9323 156.045 17.563 156.045 22.4292C156.045 26.4391 152.771 29.0632 147.837 29.0632L147.838 29.0659Z" fill="#30005F"/>
  <path d="M160.355 29.0659C161.972 29.0659 163.283 27.7109 163.283 26.0394C163.283 24.3679 161.972 23.0128 160.355 23.0128C158.738 23.0128 157.427 24.3679 157.427 26.0394C157.427 27.7109 158.738 29.0659 160.355 29.0659Z" fill="#30005F"/>
  <circle cx="160.5" cy="26.5" r="3.5" fill="#FF5C00"/>
</svg>
